<?xml version="1.0" standalone="no"?>
<!DOCTYPE svg PUBLIC "-//W3C//DTD SVG 20010904//EN"
 "http://www.w3.org/TR/2001/REC-SVG-20010904/DTD/svg10.dtd">
<svg version="1.0" xmlns="http://www.w3.org/2000/svg"
 width="640.000000pt" height="640.000000pt" viewBox="0 0 640.000000 640.000000"
 preserveAspectRatio="xMidYMid meet">
<metadata>
Created by potrace 1.14, written by Peter Selinger 2001-2017
</metadata>
<g transform="translate(0.000000,640.000000) scale(0.100000,-0.100000)"
fill="#000000" stroke="none">
<path d="M2895 6204 c-616 -46 -999 -139 -1388 -336 -229 -116 -405 -247 -587
-435 -398 -410 -626 -963 -705 -1713 -36 -339 -30 -816 15 -1167 117 -911 514
-1566 1180 -1946 209 -119 445 -211 714 -276 309 -76 572 -108 956 -117 934
-23 1675 178 2190 593 111 90 295 284 381 403 284 390 447 866 515 1500 23
206 26 777 6 970 -52 504 -151 873 -323 1211 -118 232 -247 407 -436 589 -410
398 -959 624 -1713 705 -137 15 -688 28 -805 19z m-185 -911 c0 -12 -89 -714
-96 -755 l-6 -38 256 0 c140 0 257 -3 259 -7 2 -5 -5 -101 -17 -215 l-20 -208
-266 -2 -265 -3 -6 -50 c-6 -48 -4 -55 52 -150 142 -244 441 -828 451 -880 2
-14 -34 -41 -162 -121 -91 -56 -170 -103 -176 -103 -5 -1 -25 36 -43 82 -52
127 -193 451 -201 460 -4 4 -66 -473 -139 -1060 -73 -587 -135 -1071 -138
-1075 -2 -5 -103 -8 -224 -8 -218 0 -219 0 -219 22 0 12 54 457 120 988 66
532 120 971 120 976 0 5 -35 -54 -78 -131 -89 -158 -201 -344 -275 -455 -82
-123 -208 -290 -218 -290 -12 0 -359 200 -359 207 0 3 51 73 112 157 279 375
546 813 778 1276 l80 160 -310 0 c-170 0 -310 3 -310 6 0 14 40 360 46 392 l5
32 349 0 c193 0 350 3 350 8 0 4 23 182 50 397 28 214 50 391 50 392 0 2 101
3 225 3 124 0 225 -3 225 -7z m2100 -224 c154 -25 236 -113 255 -274 4 -34
-49 -531 -170 -1574 -195 -1694 -186 -1562 -108 -1574 98 -16 319 30 467 97
43 20 79 36 80 36 2 0 -51 -483 -53 -486 -1 -1 -25 -11 -53 -22 -142 -56 -256
-72 -513 -72 -164 0 -202 3 -257 20 -83 25 -147 80 -178 152 -48 108 -48 112
139 1753 94 826 171 1504 171 1508 0 4 -166 7 -370 7 l-370 0 -4 -22 c-3 -13
-48 -381 -101 -818 -53 -437 -107 -869 -121 -960 -101 -655 -280 -1178 -534
-1556 -44 -66 -88 -129 -99 -141 l-19 -23 -198 76 c-110 42 -209 80 -222 85
-22 9 -22 10 29 81 262 370 417 729 527 1219 53 235 80 425 187 1327 76 641
110 899 126 945 44 133 112 195 239 217 70 12 1074 12 1150 -1z"/>
</g>
</svg>
